<svg xmlns="http://www.w3.org/2000/svg" viewBox="0 0 512 512">
  <defs>
    <linearGradient id="bg" x1="0" y1="0" x2="1" y2="1">
      <stop offset="0%" stop-color="#5a58f2" />
      <stop offset="100%" stop-color="#7b79ff" />
    </linearGradient>
  </defs>
  <rect width="512" height="512" rx="120" fill="url(#bg)" />
  <path d="M120 343c0-17.7 14.3-32 32-32h208c17.7 0 32 14.3 32 32s-14.3 32-32 32H152c-17.7 0-32-14.3-32-32zm0-96c0-17.7 14.3-32 32-32h138c17.7 0 32 14.3 32 32s-14.3 32-32 32H152c-17.7 0-32-14.3-32-32zm0-96c0-17.7 14.3-32 32-32h98c17.7 0 32 14.3 32 32s-14.3 32-32 32h-98c-17.7 0-32-14.3-32-32z" fill="#fff" />
  <circle cx="360" cy="170" r="34" fill="#fff" />
</svg>
